# xmcd CD database file
#
# Track frame offsets:
#	182
#	21395
#	35007
#	48485
#	62295
#	74095
#	86620
#	101907
#	115345
#	128920
#	141550
#
# Disc length: 2064 seconds
#
# Revision: 2
# Processed by: cddbd v1.4b41PL1 Copyright (c) Steve Scherf et al.
# Submitted via: Feurio! 1.60 - http://www.feurio.com
#
DISCID=a9080e0b,ad080e0b
DTITLE=Jackson 5 - Maybe Tomorrow
DYEAR=1900
DGENRE=
TTITLE0=Maybe Tomorrow
TTITLE1=She's Good
TTITLE2=Never Can Say Goodbye
TTITLE3=The Wall
TTITLE4=Petals
TTITLE5=16 Candles
TTITLE6=(We've Got) Blue Skies
TTITLE7=My Little Baby
TTITLE8=It's Great To Be Here
TTITLE9=Honey Chile
TTITLE10=I Will Find A Way
EXTD=
EXTT0=
EXTT1=
EXTT2=
EXTT3=
EXTT4=
EXTT5=
EXTT6=
EXTT7=
EXTT8=
EXTT9=
EXTT10=
PLAYORDER=
